<?xml version="1.0" encoding="utf-8"?>
<!-- Generator: Adobe Illustrator 19.1.0, SVG Export Plug-In . SVG Version: 6.00 Build 0)  -->
<svg version="1.1" id="Layer_1" xmlns="http://www.w3.org/2000/svg" xmlns:xlink="http://www.w3.org/1999/xlink" x="0px" y="0px"
	 viewBox="0 0 500 500" style="enable-background:new 0 0 500 500;" xml:space="preserve">
<style type="text/css">
	.st0{fill:#39B5AC;}
	.st1{fill:#554F42;}
	.st2{fill:none;stroke:#524C40;stroke-linecap:round;stroke-dasharray:2,3;}
	.st3{fill:#635D4F;}
	.st4{fill:#4A4742;}
	.st5{fill:#5A5346;}
</style>
<polygon class="st0" points="249.7,79.1 260.8,75 271.3,80.4 282.8,77.8 292.5,84.5 304.2,83.3 313.1,91.2 324.9,91.5 332.6,100.4 
	344.3,102.1 350.9,111.9 362.2,115.2 367.5,125.7 378.4,130.3 382.3,141.5 392.5,147.4 395,159 404.4,166.1 405.4,177.9 
	413.8,186.2 413.4,198 420.7,207.3 418.8,218.9 424.8,229.1 421.5,240.4 426.2,251.2 421.5,262 424.8,273.3 418.8,283.4 
	420.7,295.1 413.4,304.4 413.8,316.2 405.4,324.5 404.4,336.2 395,343.4 392.5,355 382.3,360.9 378.4,372 367.5,376.7 362.2,387.2 
	350.9,390.4 344.3,400.2 332.6,402 324.9,410.9 313.1,411.2 304.2,419.1 292.5,417.9 282.8,424.6 271.3,422 260.8,427.4 
	249.7,423.3 238.6,427.4 228.1,422 216.6,424.6 206.9,417.9 195.1,419.1 186.3,411.2 174.5,410.9 166.8,402 155.1,400.2 
	148.5,390.4 137.2,387.2 131.9,376.7 121,372 117.1,360.9 106.9,355 104.4,343.4 95,336.2 94,324.5 85.6,316.2 86,304.4 78.7,295.1 
	80.6,283.4 74.5,273.3 77.9,262 73.2,251.2 77.9,240.4 74.5,229.1 80.6,218.9 78.7,207.3 86,198 85.6,186.2 94,177.9 95,166.1 
	104.4,159 106.9,147.4 117.1,141.5 121,130.3 131.9,125.7 137.2,115.2 148.5,111.9 155.1,102.1 166.8,100.4 174.5,91.5 186.3,91.2 
	195.1,83.3 206.9,84.5 216.6,77.8 228.1,80.4 238.6,75 "/>
<path class="st1" d="M294.6,202.5c-0.2,0.1-0.4,0.2-0.5,0.4c-0.2,0.3-0.3,0.7-0.3,1.1c-1.5,16.6,0.7,36.5,4.3,52.8
	c0.3,1.2,0.5,2.6-0.1,3.7c-1.1,2-4.1,1.9-6.2,1.1c-6.9-2.5-15.7-0.8-22.9,0c-8.8,0.9-17.6,2.4-26.2,4.3
	c-17.1,3.9-33.6,9.8-49.6,16.9c-2.8,1.2-5.6,2.2-8.5,1.1c-0.2-1.6-0.3-3.6,0.3-5.1c8-20.9,16.6-40.2,17.6-63
	c-6.7-1.4-14-0.1-20.9-1.1c-24.6-3.7-38.7-29.4-27.6-50.4c7.2-13.5,19.6-19.1,34.3-20.2c4.5-0.3,9.7,1.7,13.3,0
	c3.3-1.6,4.3-7.2,7-10.5c16.9-20.3,53.5-27.3,73.2-7.6c2.7,2.7,5,5.7,7.6,8.7c8-4.3,16.3-7.6,25.7-6.8c17.5,1.5,32,15,34.1,32
	c1.5,12-3.5,24.2-12.6,32.1c-10.8,9.5-26.9,10.7-40.7,10.4C295.5,202.4,295,202.4,294.6,202.5z M295.1,198.2
	c0.2,2.8,21.4-0.7,23.6-1.4c8.2-2.5,16-7.5,20.7-14.8c12.1-18.6-0.2-44.4-21.8-47.8c-7.6-1.2-15.6,0.6-21.9,4.8
	c-1.7,1.1-3.3,2.5-5.2,3.2c-6.3,2.5-7.9-5.3-11-9.2c-3.8-4.7-8.6-8.4-14.6-9.6c-7.7-1.5-16-2.3-23.6-1.1
	c-14.1,2.3-26.8,10.4-32.1,24.1c-0.6,1.5-1.1,3.1-2.2,4.4c-3.2,3.8-13.8-0.5-18.4-0.2c-6.7,0.4-13.4,2.6-19,6.4
	c-21.7,14.5-12.2,45.6,11.6,50.6c16.8,3.5,32.4-0.9,47.4-8c8.3-3.9,10.9-1,19,0.6c8.9,1.7,17.4-0.9,25.2-5.1
	c1.6-0.9,3.4-2.8,5.1-2.1s-0.3,2.9-1.1,3.4c-12.7,8.9-23.3,9.7-38.4,8.8c-9.4-0.6-19.1,4.8-27.7,8.1c-1.3,0.5-3.1,1.9-3.3,3.1
	c-1.7,12.2-3,24.5-4.5,36.7c0.2-2.1,17.7-6.4,20.1-7.1c7.1-2.1,14.4-3.7,21.8-4.9c14.6-2.3,29.4-2.5,44.1-2.5
	c0.2-1.4,0.3-2.1,0.4-2.7c0.8-15.6-0.4-33,2.9-48.3c0.9-4.4,2.2-0.3,2.7,1.2C295.5,191.6,295,195.3,295.1,198.2z M195.3,274.7
	c30.9-12.5,62.5-19.2,95.7-17.2c-0.7-5.9-1.2-10.8-1.8-16.2c-4.5,0.3-8.4,0.6-12.4,0.8c-23.2,1.1-45.7,5.3-67.2,14.8
	C201.7,260.5,196.4,265.2,195.3,274.7z"/>
<path class="st2" d="M407.2,251.2c0,87-70.5,157.5-157.5,157.5c-87,0-157.5-70.5-157.5-157.5S162.7,93.7,249.7,93.7
	C336.7,93.7,407.2,164.2,407.2,251.2z"/>
<g>
	<polygon class="st3" points="396.6,387.2 497.5,387.2 481.7,356.6 497.5,325.9 396.6,325.9 	"/>
	<polygon class="st4" points="455.9,366.6 396.6,387.2 396.5,345.3 	"/>
	<polygon class="st3" points="102.8,387.2 1.9,387.2 17.7,356.6 1.9,325.9 102.8,325.9 	"/>
	<polygon class="st4" points="43.4,366.6 102.8,387.2 102.9,345.3 	"/>
	<rect x="43.4" y="287.4" class="st5" width="412.5" height="79.1"/>
</g>
<g>
	<g>
		<path class="st0" d="M143.4,308.2c-2.9,11.4-6.3,30.4-6.3,39.2c0,3.1,0.4,3.4,1,5.7c-4.8,0-5.7-2.1-5.7-7.8
			c0-11,3.3-23.8,6.9-37.4c-6.7,8.5-15.8,30.5-18.6,38.9c-0.6,0.2-0.6,0.3-1,0.3c-2.5,0-3.1-3.1-3.1-8.5c0-7.6,1.1-22.1,1.1-29.5
			c0-1.8-0.1-2.9-0.1-3.9c-14.8,34.5-18.8,47.8-23.9,47.8c1.1-2.5,10.8-23.5,22-48.8c0.3-0.6,0.7-1.8,0.7-2.8c0-1-0.4-1.8-2.4-1.8
			c-5.9,0-8.6,7-8.6,12.6c0,0.9,0.1,1.5,0.1,2.2c-2.6,0-3.7-3.4-3.7-5.7c0-6.1,7.4-11.7,13.5-11.7c4.5,0,7,3,7,15.6
			c0,8.7-1.2,19.6-1.5,27.4c3.7-14.2,16.7-34.6,19.8-39.2c1.2-1.8,1.9-2.8,3.5-2.8c0.6,0,1.3,0.1,2.2,0.5
			C145.8,300.2,144.5,303.5,143.4,308.2z"/>
		<path class="st0" d="M167.4,334.1c0,1.6-4,6.3-4,9.7c0,1.4,0.7,3.1,2.4,3.1c2.5,0,6.9-3.6,11.1-11l0.7,0.7
			c-2.9,7.5-8.8,12.6-13.7,12.6c-3.4,0-5-2.4-5-4.9c0-0.6,0.1-1.2,0.2-2c-4,5.3-7.1,8.1-10.5,8.1c-2.9,0-5.1-1.9-5.1-5.8
			c0-8.3,10.2-21.3,19.2-21.3c3.6,0,6.3,2.1,6.3,5.2c0,2.3-1.4,3-3.4,3c0.2-0.8,0.3-1.7,0.3-2.4c0-2.1-0.9-3.9-3.4-3.9
			c-6.5,0-14.3,12.9-14.3,19.6c0,1.9,0.6,2.7,1.9,2.7c4.3,0,11.2-10.1,14.6-15.1C165.5,332.5,167.4,333.1,167.4,334.1z"/>
		<path class="st0" d="M206.1,336.8c-2,4.7-4.7,5.8-6.9,5.8c-3.1,0-5.2-2.2-5.8-6.7c-3.4,6.7-8.8,13.9-13.3,13.9
			c-2.9,0-3.8-3.1-3.8-7.6c0-0.1,0.1-2.6,0.4-9.1c0.1-2.5,0.2-3.3,2.2-3.3c1.6,0,1.8,0.5,1.8,2.2c0,3.1-0.6,7.6-0.6,11.2
			c0,2.7,0.3,3.9,1.6,3.9c3.4,0,8.5-8.7,11.5-15.2c0.2-6.2,1.5-7.8,3.2-7.8c1.7,0,2.5,1.7,2.5,2.6c0,1.8-2.4,3.1-2.4,9.3
			c0,2.3,0.3,5.3,3.3,5.3c1.9,0,3.7-1.3,5.5-5.1L206.1,336.8z"/>
		<path class="st0" d="M215.1,325.1c0,2.3-7.2,10.7-7.2,17.2c0,3.3,1.1,4.2,3.4,4.2c3.1,0,6.7-2.7,10.7-10.6l0.6,0.7
			c-2.7,8-8.3,12.4-13.7,12.4c-3.6,0-5.3-2.6-5.3-5.8c0-5.3,5.3-19.5,10-19.5C214.4,323.6,215.1,324.1,215.1,325.1z M214.4,314.8
			c0-1.9,2.8-3.6,5.1-3.6c1.4,0,2.3,0.6,2.3,2.2c0,1.7-2.3,3.8-4.5,3.8C215.7,317.1,214.4,316.4,214.4,314.8z"/>
		<path class="st0" d="M242.9,334.1c0,1.6-4,6.3-4,9.7c0,1.4,0.7,3.1,2.4,3.1c2.5,0,6.9-3.6,11.1-11l0.7,0.7
			c-2.9,7.5-8.8,12.6-13.7,12.6c-3.4,0-5-2.4-5-4.9c0-0.6,0.1-1.2,0.2-2c-4,5.3-7.1,8.1-10.5,8.1c-2.9,0-5.1-1.9-5.1-5.8
			c0-8.3,10.2-21.3,19.2-21.3c3.6,0,6.3,2.1,6.3,5.2c0,2.3-1.4,3-3.4,3c0.2-0.8,0.3-1.7,0.3-2.4c0-2.1-0.9-3.9-3.4-3.9
			c-6.5,0-14.3,12.9-14.3,19.6c0,1.9,0.6,2.7,1.9,2.7c4.3,0,11.2-10.1,14.6-15.1C241,332.5,242.9,333.1,242.9,334.1z"/>
		<path class="st0" d="M275.6,321.7c13.7,0.8,15.8,6.8,15.8,11.2c0,13.5-19.7,20.3-30.1,20.3c-5.1,0-7.7-1.6-7.7-5.6
			c0-0.1,0.1-0.2,0.3-0.2c0.6,0,1.8,0.7,6.5,0.7c16,0,27.6-8.1,27.6-16.5c0-7.6-9.6-8.7-17.5-8.7c-1.8,0-3.7,0.1-5.2,0.1
			c-2.2,7.5-4.2,15.2-6.2,22.4c-2.3,0-4.1-1.5-4.1-3.3c0-1.1,0.6-2.8,1-4c1.4-4.6,8.6-27.1,14.7-38.9c-5.8,1-8.7,3.7-9.6,3.7
			c-0.7,0-2.2-1.2-2.2-1.9c4.7-1.9,9.2-3.8,16.5-3.8c6.2,0,16,1.4,16,11C291.5,317.3,282.8,320.5,275.6,321.7z M274.3,298.6
			c-3.3,6.5-6,14.4-8.4,22.7c10.1-0.3,21.5-3.6,21.5-13.7c0-7.2-5.8-9-11.7-9C275.1,298.6,274.7,298.6,274.3,298.6z"/>
		<path class="st0" d="M317.4,334.1c0,1.6-4,6.3-4,9.7c0,1.4,0.7,3.1,2.4,3.1c2.5,0,6.9-3.6,11.1-11l0.7,0.7
			c-2.9,7.5-8.8,12.6-13.7,12.6c-3.4,0-5-2.4-5-4.9c0-0.6,0.1-1.2,0.2-2c-4,5.3-7.1,8.1-10.5,8.1c-2.9,0-5.1-1.9-5.1-5.8
			c0-8.3,10.2-21.3,19.2-21.3c3.6,0,6.3,2.1,6.3,5.2c0,2.3-1.4,3-3.4,3c0.2-0.8,0.3-1.7,0.3-2.4c0-2.1-0.9-3.9-3.4-3.9
			c-6.5,0-14.3,12.9-14.3,19.6c0,1.9,0.6,2.7,1.9,2.7c4.3,0,11.2-10.1,14.6-15.1C315.5,332.5,317.4,333.1,317.4,334.1z"/>
		<path class="st0" d="M348,330.6c0-1.9-1.7-3.1-3.5-3.1c-8.2,0-13.1,19-13.9,20.6c-0.5,0.8-1.5,1.3-2.4,1.3c-2.4,0-2.4-3.3-2.4-6.5
			c0-14.5,16.1-45.2,21-45.2c1.3,0,2.2,2,2.2,4.5c0,6.4-6,16.5-14.2,21.4c-3.1,7.5-4.6,15.1-4.6,19.9c2.9-7.4,8.6-19.4,15.6-19.4
			c3.4,0,6.2,2.8,6.2,6.2c0,6-7.2,8.1-9.9,8.1c0.2,1.5,1.7,9,5.4,9c4,0,7.4-5,10.3-11.3l0.7,0.7c-2,6.8-7.5,13.3-12.4,13.3
			c-5.3,0-7.1-8.3-7.1-12.5C341.2,337.2,348,335.3,348,330.6z M336,320.7c6.4-5.1,10.6-13.3,10.6-16.9c0-0.5-0.1-0.6-0.2-0.6
			C345.1,303.2,340.1,311.3,336,320.7z"/>
		<path class="st0" d="M360.3,339.8c-0.2,0.9-0.3,1.8-0.3,2.5c0,2.8,1.2,5.8,5.5,5.8c5.9,0,12.1-5.6,15.6-12.3l0.8,0.6
			c-3.8,8.3-11,13.7-17.8,13.7c-5.6,0-8.5-3.5-8.5-8.1c0-8.3,9.4-20,17.6-20c2.2,0,4.3,0.8,4.3,4.2
			C377.6,333.4,368.3,339,360.3,339.8z M360.7,338.5c4.9-1.7,13.8-6.7,13.8-12.6c0-1-0.3-1.6-1.5-1.6
			C368.6,324.3,362.6,331.9,360.7,338.5z"/>
		<path class="st0" d="M382.8,335.3c2.8-3.1,5.1-6.4,6.9-10.1v-0.8c0-3.4,1.4-4.7,2.7-4.7c0.8,0,1.1,0.4,1.1,0.9
			c0,0.5-0.4,1.5-0.4,3.1c0,4.6,3.6,10.3,3.6,16.7c0,1.3-0.1,2.4-0.4,3.4c3.2-0.6,6-2.6,8.7-7.8l0.6,0.7c-1.7,5.1-5.6,7.6-9.7,8.3
			c-1.5,4-4.9,5.8-8.9,5.8c-6.5,0-8.7-4.9-8.7-9.1C378.4,336.1,382.1,336.1,382.8,335.3z M391.6,344.8c-3.9-0.8-7.1-3.4-8.5-5.8
			c-1.1,0.1-1.5,1-1.5,2.4c0,3.3,2.1,6.7,5.7,6.7C388.3,348.2,390.5,347.9,391.6,344.8z M390.1,327.9c-2.2,3.5-4.7,6.9-6.7,9
			c1.4,3,4.4,5.9,8.6,6.8c0.1-0.9,0.3-1.9,0.3-3.3C392.2,336.1,390.7,331.7,390.1,327.9z"/>
	</g>
</g>
</svg>
